<svg width="652" height="346" viewBox="0 0 652 346" fill="none" xmlns="http://www.w3.org/2000/svg">
<path d="M0 344C0 344 43.4174 247.191 99.5 222C150.798 198.958 199.169 256.6 243.5 222C275.723 196.851 255.758 151.969 288.5 127.5C330.574 96.0569 380.806 158.782 423 127.5C450.224 107.317 440.082 72.9178 467.5 53C501.694 28.1598 534.85 53.7004 575 40.5C607.191 29.9165 652 0.5 652 0.5V344H0Z" fill="#DCBFFF"/>
<path d="M204 346C204 346 269.193 250.224 331 251.5C362.924 252.159 376.203 281.917 408 279C450.672 275.086 449.785 212.423 492.5 209C523.596 206.508 536.415 239.136 567.5 236.5C611.336 232.783 652 162 652 162V346H204Z" fill="#C5A3FF"/>
</svg>
